<?xml version="1.0" encoding="utf-8"?>
<!-- Generator: Adobe Illustrator 26.0.3, SVG Export Plug-In . SVG Version: 6.00 Build 0)  -->
<svg version="1.1" id="Layer_2" xmlns="http://www.w3.org/2000/svg" xmlns:xlink="http://www.w3.org/1999/xlink" x="0px" y="0px"
	 viewBox="0 0 624.29 505.87" style="enable-background:new 0 0 624.29 505.87;" xml:space="preserve">
<style type="text/css">
	.st0{fill:#231F20;}
	.st1{fill:url(#XMLID_00000153687508109174271940000009101458090367069887_);}
	.st2{fill:url(#XMLID_00000142137927586692698700000007539741359455643295_);}
</style>
<symbol  id="New_Symbol" viewBox="-330.73 -207 661.47 414">
	<rect id="XMLID_41_" x="-330.73" y="153" class="st0" width="661.47" height="54"/>
	<rect id="XMLID_40_" x="-330.73" y="63" class="st0" width="661.47" height="54"/>
	<rect id="XMLID_33_" x="-330.73" y="-27" class="st0" width="661.47" height="54"/>
	<rect id="XMLID_32_" x="-330.73" y="-117" class="st0" width="661.47" height="54"/>
	<rect id="XMLID_31_" x="-330.73" y="-207" class="st0" width="661.47" height="54"/>
</symbol>
<g id="XMLID_312_">
	
		<linearGradient id="XMLID_00000075151910234882428690000012651313958298700704_" gradientUnits="userSpaceOnUse" x1="292.0206" y1="47.8586" x2="-50.6465" y2="481.2573">
		<stop  offset="0" style="stop-color:#E82629"/>
		<stop  offset="1" style="stop-color:#BD232F"/>
	</linearGradient>
	<path id="XMLID_256_" style="fill:url(#XMLID_00000075151910234882428690000012651313958298700704_);" d="M321.5,123.32
		c-0.48,2.38-5.89,6.65-7.57,8.57c-6.8,7.82-14.05,14.67-21.69,21.52c9.54-9.85,12.12-25.26,11.83-39.28
		c-0.54-26.46-9.58-55.85-24.59-77.7c-9.37-13.62-22.44-25.1-37.78-31.5c-18.17-7.58-36.86-5.16-55.61-1.09
		c37.07,9.31,61.22,48.83,61.29,87.05c0.07,38.22-14.61,77.33-94.49,141.75c-20.83,16.8-42.14,35.05-62.5,52.41
		c-24.49,20.88-46.97,40.16-64.39,67.21C1.69,390.05-3.89,438.35,2.37,499.5l27.75-66.97c0,0-6.93-40,13.26-75.77
		c12.76-22.6,32.07-40.51,52.02-57.11c40.44-33.66,82.18-65.81,121.32-100.98c56.64-50.91,53.47-85.93,54.45-106.57
		c0,0,8.26,36.98-19.82,76.02C214.46,219.37,88.99,316.28,72.07,339.04c-17.89,24.07-23.6,52.86-25.75,82.78
		c18.03-16.98,42.73-24.37,65.44-34.26c30.11-13.11,60.89-28.06,84.83-50.54c-11.47,1.08-25.9-1.22-37.37-0.14
		c49.8-13.89,99.47-52.71,115.95-101.72c-11.6,4.82-31.03,8.77-42.63,13.58C277.93,221.8,311.08,175.06,321.5,123.32z M16.49,434.88
		c-5.17,0.96-10.13-2.45-11.09-7.61c-0.96-5.17,2.45-10.13,7.61-11.09c5.17-0.96,10.13,2.45,11.09,7.61
		C25.06,428.95,21.66,433.91,16.49,434.88z"/>
	
		<linearGradient id="XMLID_00000175313834311169825990000000484344056430327188_" gradientUnits="userSpaceOnUse" x1="680.2783" y1="424.5849" x2="-2.1904" y2="504.0816">
		<stop  offset="0" style="stop-color:#FFFFFF"/>
		<stop  offset="1" style="stop-color:#231F20"/>
	</linearGradient>
	<polygon id="XMLID_276_" style="fill:url(#XMLID_00000175313834311169825990000000484344056430327188_);" points="24.27,505.87 
		624.29,445.87 99.2,477.5 	"/>
</g>
</svg>
